<svg width="24" height="24" viewBox="0 0 24 24" fill="none" xmlns="http://www.w3.org/2000/svg">
<path d="M21 5H3C2.73478 5 2.48043 5.10536 2.29289 5.29289C2.10536 5.48043 2 5.73478 2 6V10H2.893C3.889 10 4.813 10.681 4.973 11.664C5.02174 11.951 5.00726 12.2453 4.93056 12.5261C4.85387 12.807 4.71681 13.0677 4.52894 13.2902C4.34108 13.5126 4.10694 13.6913 3.84287 13.8139C3.57879 13.9365 3.29115 14 3 14H2V18C2 18.2652 2.10536 18.5196 2.29289 18.7071C2.48043 18.8946 2.73478 19 3 19H21C21.2652 19 21.5196 18.8946 21.7071 18.7071C21.8946 18.5196 22 18.2652 22 18V14H21C20.7089 14 20.4212 13.9365 20.1571 13.8139C19.8931 13.6913 19.6589 13.5126 19.4711 13.2902C19.2832 13.0677 19.1461 12.807 19.0694 12.5261C18.9927 12.2453 18.9783 11.951 19.027 11.664C19.187 10.681 20.111 10 21.107 10H22V6C22 5.73478 21.8946 5.48043 21.7071 5.29289C21.5196 5.10536 21.2652 5 21 5ZM9 9C9.26522 9 9.51957 9.10536 9.70711 9.29289C9.89464 9.48043 10 9.73478 10 10C10 10.2652 9.89464 10.5196 9.70711 10.7071C9.51957 10.8946 9.26522 11 9 11C8.73478 11 8.48043 10.8946 8.29289 10.7071C8.10536 10.5196 8 10.2652 8 10C8 9.73478 8.10536 9.48043 8.29289 9.29289C8.48043 9.10536 8.73478 9 9 9ZM8.2 15.4L14.2 7.4L15.8 8.6L9.8 16.6L8.2 15.4ZM15 15C14.7348 15 14.4804 14.8946 14.2929 14.7071C14.1054 14.5196 14 14.2652 14 14C14 13.7348 14.1054 13.4804 14.2929 13.2929C14.4804 13.1054 14.7348 13 15 13C15.2652 13 15.5196 13.1054 15.7071 13.2929C15.8946 13.4804 16 13.7348 16 14C16 14.2652 15.8946 14.5196 15.7071 14.7071C15.5196 14.8946 15.2652 15 15 15Z" fill="#499E3F"/>
</svg>
