<svg width="17" height="14" viewBox="0 0 17 14" fill="none" xmlns="http://www.w3.org/2000/svg">
<path d="M15.3063 5.8H4.4575L7.31613 3.028C7.55991 2.7916 7.675 2.5096 7.675 2.2C7.675 1.6096 7.17196 1 6.4375 1C6.10894 1 5.82246 1.1158 5.58362 1.348L0.659612 6.1228C0.456662 6.3196 0.25 6.5626 0.25 7C0.25 7.4374 0.422631 7.648 0.649712 7.8682L5.58362 12.652C5.82246 12.8842 6.10894 13 6.4375 13C7.17257 13 7.675 12.3904 7.675 11.8C7.675 11.4904 7.55991 11.2084 7.31613 10.972L4.4575 8.2H15.3063C15.9894 8.2 16.5438 7.6624 16.5438 7C16.5438 6.3376 15.9894 5.8 15.3063 5.8Z" fill="#363636" stroke="#EEEEEE" stroke-width="0.5"/>
</svg>
