<svg width="225" height="168" viewBox="0 0 225 168" fill="none" xmlns="http://www.w3.org/2000/svg">
  <defs>
    <linearGradient id="paint0_linear_2168:27528" x1="2" y1="80.3344" x2="15.3894" y2="80.3344" gradientUnits="userSpaceOnUse">
      <stop offset="0.355" stop-color="#FFC34E"/>
      <stop offset="0.633" stop-color="#F89523"/>
    </linearGradient>
    <linearGradient id="paint1_linear_2168:27528" x1="50.4185" y1="30.9379" x2="58.6359" y2="30.9379" gradientUnits="userSpaceOnUse">
      <stop stop-color="#FF8D79"/>
      <stop offset="0.649" stop-color="#FF7079"/>
    </linearGradient>
    <clipPath id="clip0_2168:27528">
      <rect width="164" height="133" fill="white" transform="translate(34 35)"/>
    </clipPath>
  </defs>
<g clip-path="url(#clip0_2168:27528)">
<path d="M176.385 98.6836C179.78 135.203 148.002 168.026 105.319 168C62.6311 168.026 30.8536 135.198 34.248 98.6836C37.6321 62.0706 69.4148 35.0729 105.314 35C141.213 35.0729 173.001 62.0706 176.385 98.6836Z" fill="#F89523" fill-opacity="0.08"/>
<path d="M145.044 105H62.9768C60.2294 105 57.8181 103.18 57.0635 100.534L43.1499 51.8493C42.4542 49.4215 44.2759 46.9997 46.7992 46.9997H152" fill="white"/>
<path d="M87.154 137.335C88.374 129.831 83.3347 122.749 75.8984 121.518C68.4621 120.287 61.4448 125.372 60.2247 132.876C59.0047 140.381 64.0439 147.462 71.4803 148.693C78.9166 149.925 85.9339 144.839 87.154 137.335Z" fill="white"/>
<path d="M136.768 137.296C137.966 129.788 132.905 122.722 125.465 121.514C118.025 120.305 111.023 125.412 109.825 132.92C108.628 140.428 113.689 147.495 121.129 148.703C128.569 149.911 135.571 144.804 136.768 137.296Z" fill="white"/>
<path d="M123.292 137.092C124.381 137.092 125.263 136.202 125.263 135.104C125.263 134.005 124.381 133.115 123.292 133.115C122.204 133.115 121.322 134.005 121.322 135.104C121.322 136.202 122.204 137.092 123.292 137.092Z" fill="white"/>
<path fill-rule="evenodd" clip-rule="evenodd" d="M80.1038 127.093C74.1127 127.093 69.256 131.994 69.256 138.04C69.256 144.086 74.1127 148.987 80.1038 148.987C86.0949 148.987 90.9516 144.086 90.9516 138.04C90.9516 131.994 86.0949 127.093 80.1038 127.093ZM63.6621 138.04C63.6621 128.876 71.0233 121.448 80.1038 121.448C89.1843 121.448 96.5455 128.876 96.5455 138.04C96.5455 147.204 89.1843 154.632 80.1038 154.632C71.0233 154.632 63.6621 147.204 63.6621 138.04Z" fill="#8190A3" fill-opacity="0.8"/>
<path fill-rule="evenodd" clip-rule="evenodd" d="M179.181 43.7102C174.515 43.7102 170.368 46.6983 168.852 51.1493L168.852 51.1497L146.82 115.838C146.82 115.838 146.82 115.838 146.819 115.838C144.527 122.57 138.249 127.088 131.2 127.088H77.7408C76.1961 127.088 74.9438 125.824 74.9438 124.265C74.9438 122.706 76.1961 121.443 77.7408 121.443H131.2C135.862 121.443 140.014 118.454 141.529 114.003L141.529 114.003L163.562 49.3151C163.562 49.315 163.562 49.3149 163.562 49.3147C165.854 42.5837 172.127 38.0651 179.181 38.0651H195.209C196.754 38.0651 198.006 39.3288 198.006 40.8876C198.006 42.4465 196.754 43.7102 195.209 43.7102H179.181Z" fill="#8190A3" fill-opacity="0.8"/>
<path fill-rule="evenodd" clip-rule="evenodd" d="M80.1036 136.992C79.5302 136.992 79.0653 137.461 79.0653 138.04C79.0653 138.619 79.5302 139.088 80.1036 139.088C80.6771 139.088 81.1419 138.619 81.1419 138.04C81.1419 137.461 80.6771 136.992 80.1036 136.992ZM77.2007 138.04C77.2007 136.422 78.5004 135.111 80.1036 135.111C81.7069 135.111 83.0066 136.422 83.0066 138.04C83.0066 139.658 81.7069 140.97 80.1036 140.97C78.5004 140.97 77.2007 139.658 77.2007 138.04Z" fill="#8190A3" fill-opacity="0.8"/>
<path fill-rule="evenodd" clip-rule="evenodd" d="M129.705 127.093C123.714 127.093 118.857 131.994 118.857 138.04C118.857 144.086 123.714 148.987 129.705 148.987C135.696 148.987 140.553 144.086 140.553 138.04C140.553 131.994 135.696 127.093 129.705 127.093ZM113.263 138.04C113.263 128.876 120.624 121.448 129.705 121.448C138.785 121.448 146.147 128.876 146.147 138.04C146.147 147.204 138.785 154.632 129.705 154.632C120.624 154.632 113.263 147.204 113.263 138.04Z" fill="#8190A3" fill-opacity="0.8"/>
<path fill-rule="evenodd" clip-rule="evenodd" d="M129.705 136.992C129.132 136.992 128.667 137.461 128.667 138.04C128.667 138.619 129.132 139.088 129.705 139.088C130.279 139.088 130.743 138.619 130.743 138.04C130.743 137.461 130.279 136.992 129.705 136.992ZM126.802 138.04C126.802 136.422 128.102 135.111 129.705 135.111C131.308 135.111 132.608 136.422 132.608 138.04C132.608 139.658 131.308 140.97 129.705 140.97C128.102 140.97 126.802 139.658 126.802 138.04Z" fill="#8190A3" fill-opacity="0.8"/>
<path fill-rule="evenodd" clip-rule="evenodd" d="M60.9547 58.5624C60.6043 58.5624 60.3549 58.9014 60.4498 59.235L72.6305 102.145C72.9471 103.264 73.9579 104.034 75.1153 104.034H146.919C148.464 104.034 149.716 105.298 149.716 106.857C149.716 108.415 148.464 109.679 146.919 109.679H75.1153C71.4655 109.679 68.2569 107.243 67.2523 103.698C67.2522 103.698 67.2521 103.697 67.252 103.697C67.252 103.697 67.2519 103.697 67.2518 103.696L55.0731 60.7928C55.073 60.7925 55.073 60.7922 55.0729 60.792C55.0728 60.7917 55.0727 60.7915 55.0727 60.7912C53.9514 56.8461 56.8898 52.9174 60.9547 52.9174H153.006C154.551 52.9174 155.803 54.1811 155.803 55.7399C155.803 57.2987 154.551 58.5624 153.006 58.5624H60.9547Z" fill="#8190A3" fill-opacity="0.8"/>
<path fill-rule="evenodd" clip-rule="evenodd" d="M72.6113 68.1458C72.6113 67.1065 73.4462 66.2641 74.476 66.2641H160.105C161.135 66.2641 161.97 67.1065 161.97 68.1458C161.97 69.185 161.135 70.0275 160.105 70.0275H74.476C73.4462 70.0275 72.6113 69.185 72.6113 68.1458Z" fill="#8190A3" fill-opacity="0.8"/>
<path fill-rule="evenodd" clip-rule="evenodd" d="M79.9155 86.5067C79.9155 85.4675 80.7504 84.625 81.7802 84.625H153.847C154.877 84.625 155.712 85.4675 155.712 86.5067C155.712 87.5459 154.877 88.3884 153.847 88.3884H81.7802C80.7504 88.3884 79.9155 87.5459 79.9155 86.5067Z" fill="#8190A3" fill-opacity="0.8"/>
<path fill-rule="evenodd" clip-rule="evenodd" d="M44.2709 162.187L44.2756 162.186L44.2993 162.178C44.3215 162.17 44.3563 162.159 44.4036 162.143C44.4983 162.112 44.643 162.065 44.8369 162.004C45.2245 161.881 45.8083 161.702 46.58 161.479C48.1234 161.032 50.418 160.411 53.3971 159.719C59.3558 158.334 68.0506 156.668 78.9494 155.557C100.749 153.335 131.349 153.333 166.507 162.23C167.506 162.483 168.519 161.87 168.769 160.862C169.02 159.854 168.413 158.832 167.414 158.579C131.76 149.557 100.716 149.556 78.5746 151.813C67.5032 152.942 58.6536 154.636 52.5605 156.051C49.5137 156.759 47.1555 157.397 45.5526 157.861C44.7511 158.093 44.1384 158.281 43.7228 158.412C43.515 158.478 43.3565 158.529 43.2483 158.565C43.1942 158.583 43.1526 158.596 43.1238 158.606L43.0901 158.617L43.0804 158.621L43.0774 158.622C43.0764 158.622 43.0756 158.622 43.6732 160.405L43.0756 158.622C42.1001 158.955 41.5769 160.023 41.907 161.008C42.237 161.992 43.295 162.52 44.2703 162.187L44.2708 162.187L44.2709 162.187Z" fill="#8190A3" fill-opacity="0.8"/>
</g>
<path opacity="0.3" d="M11.852 86.6293L9.49644 85.4742C9.32328 85.3893 9.1327 85.3491 8.94113 85.357C8.74955 85.3649 8.56273 85.4207 8.39672 85.5197L6.13844 86.8654C5.94738 86.9793 5.72923 87.0358 5.50865 87.0284C5.28806 87.0211 5.07386 86.9503 4.8903 86.8239C4.70673 86.6976 4.56113 86.5207 4.46996 86.3135C4.37879 86.1062 4.34569 85.8767 4.3744 85.6511L4.71181 82.9842C4.7366 82.7881 4.71484 82.5888 4.64838 82.4033C4.58193 82.2178 4.47277 82.0517 4.33031 81.9194L2.39124 80.1203C2.22729 79.968 2.10792 79.7715 2.0466 79.5529C1.98528 79.3342 1.98446 79.1023 2.04425 78.8833C2.10403 78.6642 2.22202 78.4668 2.3849 78.3132C2.54778 78.1597 2.74905 78.0562 2.96597 78.0145L5.52943 77.5214C5.71791 77.4852 5.89503 77.4023 6.04552 77.2798C6.196 77.1573 6.31534 76.9989 6.39326 76.8182L7.45378 74.3636C7.54342 74.1557 7.68769 73.9778 7.87027 73.85C8.05285 73.7222 8.26646 73.6497 8.48693 73.6406C8.7074 73.6315 8.92595 73.6863 9.11784 73.7986C9.30973 73.9109 9.4673 74.0764 9.57274 74.2763L10.8202 76.6384C10.9118 76.8122 11.0431 76.9603 11.2026 77.0701C11.3621 77.1799 11.5451 77.2481 11.7358 77.2687L14.3294 77.5488C14.5489 77.5724 14.7577 77.6588 14.9321 77.7984C15.1065 77.938 15.2394 78.1251 15.316 78.3387C15.3926 78.5522 15.4097 78.7836 15.3653 79.0066C15.321 79.2296 15.217 79.4353 15.0651 79.6005L13.2716 81.5498C13.1398 81.6934 13.0438 81.8679 12.9918 82.0583C12.9399 82.2487 12.9336 82.4493 12.9734 82.6428L13.5167 85.2735C13.5628 85.4961 13.5476 85.7276 13.4728 85.9418C13.3979 86.156 13.2665 86.3443 13.0932 86.4853C12.92 86.6264 12.7119 86.7147 12.4926 86.7401C12.2732 86.7656 12.0513 86.7272 11.852 86.6293Z" fill="url(#paint0_linear_2168:27528)"/>
<path opacity="0.3" d="M116.929 12.1393L114.651 11.0593C114.483 10.9798 114.298 10.9421 114.112 10.9495C113.926 10.9569 113.744 11.0092 113.583 11.1019L111.399 12.3595C111.215 12.466 111.004 12.5188 110.79 12.512C110.577 12.5052 110.37 12.439 110.192 12.3209C110.014 12.2028 109.873 12.0375 109.785 11.8438C109.697 11.6501 109.665 11.4356 109.693 11.2247L110.021 8.73329C110.046 8.54996 110.025 8.36349 109.961 8.19002C109.896 8.01655 109.79 7.8613 109.652 7.7377L107.777 6.05683C107.619 5.91447 107.504 5.73102 107.446 5.52713C107.387 5.32325 107.386 5.10703 107.444 4.90281C107.501 4.69859 107.615 4.51448 107.772 4.37121C107.929 4.22793 108.123 4.13119 108.333 4.09186L110.813 3.63172C110.995 3.59798 111.166 3.52077 111.311 3.4067C111.457 3.29262 111.573 3.14509 111.648 2.97674L112.673 0.680167C112.76 0.484929 112.899 0.317765 113.076 0.197688C113.253 0.0776117 113.461 0.00944036 113.675 0.000911454C113.889 -0.00761746 114.101 0.0438497 114.287 0.149453C114.473 0.255056 114.626 0.410553 114.728 0.598288L115.933 2.8089C116.022 2.97087 116.149 3.10899 116.303 3.21148C116.458 3.31398 116.635 3.37782 116.819 3.39757L119.328 3.65957C119.54 3.68145 119.742 3.76216 119.911 3.89254C120.079 4.02292 120.208 4.19775 120.282 4.39725C120.356 4.59676 120.373 4.81294 120.33 5.02132C120.287 5.22969 120.186 5.42191 120.039 5.57623L118.305 7.4012C118.177 7.53546 118.084 7.69866 118.034 7.87669C117.984 8.05471 117.978 8.24221 118.017 8.42299L118.542 10.8792C118.585 11.0871 118.57 11.3029 118.496 11.5023C118.423 11.7017 118.296 11.8768 118.128 12.0078C117.96 12.1388 117.759 12.2205 117.547 12.2437C117.335 12.267 117.121 12.2308 116.929 12.1393Z" fill="#22B573"/>
<path opacity="0.5" d="M197.908 26.6807L196.799 26.1384C196.609 26.0458 196.401 26.0019 196.191 26.0106C195.981 26.0193 195.777 26.0803 195.595 26.1883L194.532 26.8213C194.323 26.9456 194.084 27.0073 193.843 26.9993C193.601 26.9914 193.367 26.9141 193.166 26.7763C192.965 26.6385 192.805 26.4457 192.706 26.2196C192.606 25.9935 192.569 25.7432 192.601 25.4969L192.759 24.2457C192.786 24.0317 192.763 23.8141 192.69 23.6117C192.617 23.4093 192.497 23.2281 192.341 23.0838L191.429 22.2398C191.249 22.0737 191.118 21.8593 191.051 21.6207C190.984 21.3821 190.983 21.129 191.048 20.8899C191.114 20.6508 191.243 20.4353 191.421 20.2678C191.6 20.1002 191.82 19.9874 192.058 19.942L193.264 19.7106C193.471 19.671 193.665 19.5805 193.829 19.4468C193.994 19.3132 194.125 19.1403 194.21 18.9432L194.709 17.7904C194.807 17.5635 194.965 17.3692 195.165 17.2297C195.365 17.0902 195.599 17.011 195.84 17.0011C196.082 16.9911 196.321 17.0508 196.531 17.1734C196.741 17.296 196.914 17.4766 197.029 17.6948L197.616 18.8032C197.717 18.9928 197.86 19.1544 198.035 19.2742C198.21 19.3939 198.41 19.4681 198.619 19.4904L199.84 19.6219C200.08 19.6477 200.309 19.7421 200.499 19.8945C200.69 20.0468 200.836 20.251 200.92 20.4839C201.003 20.7169 201.022 20.9693 200.974 21.2126C200.925 21.4559 200.811 21.6804 200.645 21.8607L199.801 22.775C199.656 22.9317 199.551 23.1221 199.495 23.3297C199.438 23.5374 199.431 23.7562 199.474 23.9672L199.73 25.2008C199.781 25.4437 199.764 25.6963 199.682 25.93C199.6 26.1637 199.456 26.3692 199.267 26.5231C199.077 26.6771 198.849 26.7735 198.609 26.8013C198.369 26.8292 198.126 26.7874 197.908 26.6807Z" fill="#D9E2F9"/>
<path opacity="0.5" d="M160.042 38.0456L158.71 37.4144C158.482 37.3066 158.232 37.2555 157.98 37.2656C157.728 37.2758 157.483 37.3468 157.265 37.4725L155.988 38.2094C155.737 38.3541 155.45 38.4258 155.16 38.4166C154.87 38.4073 154.589 38.3174 154.348 38.157C154.106 37.9966 153.915 37.7721 153.795 37.5089C153.675 37.2457 153.631 36.9543 153.669 36.6677L153.859 35.2112C153.892 34.962 153.863 34.7088 153.776 34.4731C153.688 34.2375 153.545 34.0266 153.357 33.8586L152.262 32.8761C152.046 32.6828 151.889 32.4332 151.808 32.1555C151.727 31.8778 151.726 31.5831 151.805 31.3048C151.883 31.0264 152.038 30.7756 152.253 30.5805C152.467 30.3855 152.732 30.2542 153.017 30.2013L154.466 29.9319C154.713 29.8859 154.946 29.7806 155.144 29.6249C155.342 29.4693 155.499 29.2681 155.601 29.0387L156.2 27.6968C156.318 27.4326 156.508 27.2065 156.748 27.0441C156.988 26.8817 157.269 26.7895 157.559 26.7779C157.849 26.7663 158.136 26.8358 158.389 26.9785C158.641 27.1212 158.848 27.3315 158.987 27.5854L159.692 28.8757C159.812 29.0964 159.985 29.2846 160.195 29.4239C160.404 29.5633 160.645 29.6497 160.896 29.6757L162.362 29.8288C162.65 29.8588 162.925 29.9687 163.154 30.146C163.383 30.3233 163.558 30.561 163.659 30.8322C163.759 31.1034 163.782 31.3972 163.723 31.6804C163.665 31.9636 163.529 32.2249 163.329 32.4348L162.315 33.4992C162.142 33.6816 162.016 33.9032 161.947 34.1449C161.879 34.3866 161.871 34.6413 161.923 34.8869L162.23 36.323C162.291 36.6058 162.271 36.8998 162.173 37.1718C162.074 37.4438 161.902 37.683 161.674 37.8623C161.446 38.0415 161.173 38.1537 160.884 38.1861C160.596 38.2185 160.304 38.1699 160.042 38.0456Z" fill="#FFE3E4"/>
<path opacity="0.2" d="M54.5272 35.0316C56.7963 35.0316 58.6359 33.1988 58.6359 30.9379C58.6359 28.677 56.7963 26.8442 54.5272 26.8442C52.258 26.8442 50.4185 28.677 50.4185 30.9379C50.4185 33.1988 52.258 35.0316 54.5272 35.0316Z" fill="url(#paint1_linear_2168:27528)"/>
<path opacity="0.3" d="M34.8056 8.83184C36.1671 8.83184 37.2708 7.73216 37.2708 6.37562C37.2708 5.01909 36.1671 3.9194 34.8056 3.9194C33.444 3.9194 32.3403 5.01909 32.3403 6.37562C32.3403 7.73216 33.444 8.83184 34.8056 8.83184Z" fill="#AAAAAA"/>
<path opacity="0.2" d="M215.627 90.706C217.896 90.706 219.736 88.8731 219.736 86.6123C219.736 84.3514 217.896 82.5186 215.627 82.5186C213.358 82.5186 211.519 84.3514 211.519 86.6123C211.519 88.8731 213.358 90.706 215.627 90.706Z" fill="#F1C93A"/>

</svg>
